<mxfile host="Electron" agent="Mozilla/5.0 (Windows NT 10.0; Win64; x64) AppleWebKit/537.36 (KHTML, like Gecko) draw.io/24.7.8 Chrome/128.0.6613.36 Electron/32.0.1 Safari/537.36" version="24.7.8">
  <diagram name="Page-1" id="XNKOTe2d9y0LLOwoemzy">
    <mxGraphModel dx="1750" dy="1035" grid="1" gridSize="10" guides="1" tooltips="1" connect="1" arrows="1" fold="1" page="1" pageScale="1" pageWidth="850" pageHeight="1100" math="0" shadow="0">
      <root>
        <mxCell id="0" />
        <mxCell id="1" parent="0" />
        <mxCell id="znuqFYOBB7Gezf0xpwQd-26" value="" style="whiteSpace=wrap;html=1;aspect=fixed;" vertex="1" parent="1">
          <mxGeometry x="426.33" y="180" width="140" height="140" as="geometry" />
        </mxCell>
        <mxCell id="znuqFYOBB7Gezf0xpwQd-38" style="edgeStyle=orthogonalEdgeStyle;rounded=0;orthogonalLoop=1;jettySize=auto;html=1;exitX=1;exitY=0.5;exitDx=0;exitDy=0;entryX=0.5;entryY=0;entryDx=0;entryDy=0;startArrow=classic;startFill=1;" edge="1" parent="1" source="znuqFYOBB7Gezf0xpwQd-15" target="znuqFYOBB7Gezf0xpwQd-18">
          <mxGeometry relative="1" as="geometry" />
        </mxCell>
        <mxCell id="znuqFYOBB7Gezf0xpwQd-55" style="edgeStyle=orthogonalEdgeStyle;rounded=0;orthogonalLoop=1;jettySize=auto;html=1;entryX=0.5;entryY=0;entryDx=0;entryDy=0;" edge="1" parent="1" source="znuqFYOBB7Gezf0xpwQd-15" target="znuqFYOBB7Gezf0xpwQd-34">
          <mxGeometry relative="1" as="geometry" />
        </mxCell>
        <mxCell id="znuqFYOBB7Gezf0xpwQd-15" value="" style="whiteSpace=wrap;html=1;aspect=fixed;" vertex="1" parent="1">
          <mxGeometry x="650" y="66" width="120" height="120" as="geometry" />
        </mxCell>
        <mxCell id="znuqFYOBB7Gezf0xpwQd-5" value="Client" style="sketch=0;html=1;aspect=fixed;strokeColor=#b85450;shadow=0;fillColor=#232F3D;verticalAlign=top;labelPosition=center;verticalLabelPosition=bottom;shape=mxgraph.gcp2.phone_android" vertex="1" parent="1">
          <mxGeometry x="110" y="180" width="56" height="100" as="geometry" />
        </mxCell>
        <mxCell id="znuqFYOBB7Gezf0xpwQd-7" value="" style="endArrow=classic;startArrow=classic;html=1;rounded=0;entryX=0.16;entryY=0.55;entryDx=0;entryDy=0;entryPerimeter=0;exitX=1.017;exitY=0.539;exitDx=0;exitDy=0;exitPerimeter=0;" edge="1" parent="1" source="znuqFYOBB7Gezf0xpwQd-5" target="znuqFYOBB7Gezf0xpwQd-8">
          <mxGeometry width="50" height="50" relative="1" as="geometry">
            <mxPoint x="167" y="231" as="sourcePoint" />
            <mxPoint x="280" y="210" as="targetPoint" />
          </mxGeometry>
        </mxCell>
        <mxCell id="znuqFYOBB7Gezf0xpwQd-8" value="Internet" style="ellipse;shape=cloud;whiteSpace=wrap;html=1;" vertex="1" parent="1">
          <mxGeometry x="250" y="190" width="120" height="80" as="geometry" />
        </mxCell>
        <mxCell id="znuqFYOBB7Gezf0xpwQd-13" style="edgeStyle=orthogonalEdgeStyle;rounded=0;orthogonalLoop=1;jettySize=auto;html=1;entryX=0;entryY=0.5;entryDx=0;entryDy=0;" edge="1" parent="1" source="znuqFYOBB7Gezf0xpwQd-9" target="znuqFYOBB7Gezf0xpwQd-12">
          <mxGeometry relative="1" as="geometry" />
        </mxCell>
        <mxCell id="znuqFYOBB7Gezf0xpwQd-9" value="NGINX Caching&lt;div&gt;Reverse Proxy&lt;br&gt;&lt;/div&gt;" style="image;points=[];aspect=fixed;html=1;align=center;shadow=0;dashed=0;image=img/lib/allied_telesis/storage/Datacenter_Server_Half_Rack_ToR.svg;" vertex="1" parent="1">
          <mxGeometry x="459" y="183" width="74.65" height="97" as="geometry" />
        </mxCell>
        <mxCell id="znuqFYOBB7Gezf0xpwQd-10" value="" style="endArrow=classic;startArrow=classic;html=1;rounded=0;entryX=-0.011;entryY=0.501;entryDx=0;entryDy=0;entryPerimeter=0;exitX=0.875;exitY=0.5;exitDx=0;exitDy=0;exitPerimeter=0;" edge="1" parent="1" source="znuqFYOBB7Gezf0xpwQd-8" target="znuqFYOBB7Gezf0xpwQd-9">
          <mxGeometry width="50" height="50" relative="1" as="geometry">
            <mxPoint x="425" y="250" as="sourcePoint" />
            <mxPoint x="557" y="250" as="targetPoint" />
          </mxGeometry>
        </mxCell>
        <mxCell id="znuqFYOBB7Gezf0xpwQd-12" value="Web Server" style="image;aspect=fixed;perimeter=ellipsePerimeter;html=1;align=center;shadow=0;dashed=0;spacingTop=3;image=img/lib/active_directory/web_server.svg;" vertex="1" parent="1">
          <mxGeometry x="680" y="66" width="72" height="90" as="geometry" />
        </mxCell>
        <mxCell id="znuqFYOBB7Gezf0xpwQd-14" value="" style="image;sketch=0;aspect=fixed;html=1;points=[];align=center;fontSize=12;image=img/lib/mscae/Docker.svg;" vertex="1" parent="1">
          <mxGeometry x="655.61" y="71" width="24.39" height="20" as="geometry" />
        </mxCell>
        <mxCell id="znuqFYOBB7Gezf0xpwQd-16" value="" style="whiteSpace=wrap;html=1;aspect=fixed;" vertex="1" parent="1">
          <mxGeometry x="889" y="320" width="100" height="100" as="geometry" />
        </mxCell>
        <mxCell id="znuqFYOBB7Gezf0xpwQd-17" value="" style="image;sketch=0;aspect=fixed;html=1;points=[];align=center;fontSize=12;image=img/lib/mscae/Docker.svg;" vertex="1" parent="1">
          <mxGeometry x="894.61" y="325" width="24.39" height="20" as="geometry" />
        </mxCell>
        <mxCell id="znuqFYOBB7Gezf0xpwQd-18" value="" style="whiteSpace=wrap;html=1;aspect=fixed;" vertex="1" parent="1">
          <mxGeometry x="1060" y="205" width="120" height="120" as="geometry" />
        </mxCell>
        <mxCell id="znuqFYOBB7Gezf0xpwQd-19" value="" style="image;sketch=0;aspect=fixed;html=1;points=[];align=center;fontSize=12;image=img/lib/mscae/Docker.svg;" vertex="1" parent="1">
          <mxGeometry x="1065.6100000000001" y="210" width="24.39" height="20" as="geometry" />
        </mxCell>
        <mxCell id="znuqFYOBB7Gezf0xpwQd-43" style="edgeStyle=orthogonalEdgeStyle;rounded=0;orthogonalLoop=1;jettySize=auto;html=1;exitX=1;exitY=0.5;exitDx=0;exitDy=0;entryX=0;entryY=0.75;entryDx=0;entryDy=0;startArrow=classic;startFill=1;" edge="1" parent="1" source="znuqFYOBB7Gezf0xpwQd-22" target="znuqFYOBB7Gezf0xpwQd-18">
          <mxGeometry relative="1" as="geometry" />
        </mxCell>
        <mxCell id="znuqFYOBB7Gezf0xpwQd-22" value="" style="whiteSpace=wrap;html=1;aspect=fixed;" vertex="1" parent="1">
          <mxGeometry x="1030" y="400" width="160" height="160" as="geometry" />
        </mxCell>
        <mxCell id="znuqFYOBB7Gezf0xpwQd-23" value="" style="image;sketch=0;aspect=fixed;html=1;points=[];align=center;fontSize=12;image=img/lib/mscae/Docker.svg;" vertex="1" parent="1">
          <mxGeometry x="1035.6100000000001" y="409" width="24.39" height="20" as="geometry" />
        </mxCell>
        <mxCell id="znuqFYOBB7Gezf0xpwQd-27" value="" style="image;sketch=0;aspect=fixed;html=1;points=[];align=center;fontSize=12;image=img/lib/mscae/Docker.svg;" vertex="1" parent="1">
          <mxGeometry x="429.33" y="184" width="24.39" height="20" as="geometry" />
        </mxCell>
        <mxCell id="znuqFYOBB7Gezf0xpwQd-28" value="Sql Server&amp;nbsp;&lt;div&gt;Database&lt;/div&gt;" style="image;sketch=0;aspect=fixed;html=1;points=[];align=center;fontSize=12;image=img/lib/mscae/SQL_Servers.svg;" vertex="1" parent="1">
          <mxGeometry x="925.39" y="332" width="50" height="50" as="geometry" />
        </mxCell>
        <mxCell id="znuqFYOBB7Gezf0xpwQd-29" value="Event Bus Rabbit" style="image;sketch=0;aspect=fixed;html=1;points=[];align=center;fontSize=12;image=img/lib/mscae/Service_Bus.svg;" vertex="1" parent="1">
          <mxGeometry x="1100" y="235" width="50" height="50" as="geometry" />
        </mxCell>
        <mxCell id="znuqFYOBB7Gezf0xpwQd-39" style="edgeStyle=orthogonalEdgeStyle;rounded=0;orthogonalLoop=1;jettySize=auto;html=1;exitX=1;exitY=0.5;exitDx=0;exitDy=0;entryX=0;entryY=0.5;entryDx=0;entryDy=0;startArrow=classic;startFill=1;" edge="1" parent="1" source="znuqFYOBB7Gezf0xpwQd-33" target="znuqFYOBB7Gezf0xpwQd-16">
          <mxGeometry relative="1" as="geometry" />
        </mxCell>
        <mxCell id="znuqFYOBB7Gezf0xpwQd-40" style="edgeStyle=orthogonalEdgeStyle;rounded=0;orthogonalLoop=1;jettySize=auto;html=1;exitX=1;exitY=0.25;exitDx=0;exitDy=0;entryX=0;entryY=0.5;entryDx=0;entryDy=0;startArrow=classic;startFill=1;" edge="1" parent="1" source="znuqFYOBB7Gezf0xpwQd-33" target="znuqFYOBB7Gezf0xpwQd-18">
          <mxGeometry relative="1" as="geometry" />
        </mxCell>
        <mxCell id="znuqFYOBB7Gezf0xpwQd-50" style="edgeStyle=orthogonalEdgeStyle;rounded=0;orthogonalLoop=1;jettySize=auto;html=1;entryX=0.5;entryY=0;entryDx=0;entryDy=0;" edge="1" parent="1" source="znuqFYOBB7Gezf0xpwQd-33" target="znuqFYOBB7Gezf0xpwQd-47">
          <mxGeometry relative="1" as="geometry" />
        </mxCell>
        <mxCell id="znuqFYOBB7Gezf0xpwQd-33" value="" style="whiteSpace=wrap;html=1;aspect=fixed;" vertex="1" parent="1">
          <mxGeometry x="650" y="266" width="120" height="120" as="geometry" />
        </mxCell>
        <mxCell id="znuqFYOBB7Gezf0xpwQd-34" value="Orders API" style="image;aspect=fixed;perimeter=ellipsePerimeter;html=1;align=center;shadow=0;dashed=0;spacingTop=3;image=img/lib/active_directory/web_server.svg;" vertex="1" parent="1">
          <mxGeometry x="680" y="266" width="72" height="90" as="geometry" />
        </mxCell>
        <mxCell id="znuqFYOBB7Gezf0xpwQd-35" value="" style="image;sketch=0;aspect=fixed;html=1;points=[];align=center;fontSize=12;image=img/lib/mscae/Docker.svg;" vertex="1" parent="1">
          <mxGeometry x="655.61" y="271" width="24.39" height="20" as="geometry" />
        </mxCell>
        <mxCell id="znuqFYOBB7Gezf0xpwQd-42" value="&lt;font color=&quot;#1a1a1a&quot;&gt;Notification&lt;/font&gt;&lt;div&gt;&lt;font color=&quot;#1a1a1a&quot;&gt;Background Service&lt;/font&gt;&lt;/div&gt;" style="sketch=0;outlineConnect=0;fillColor=#1ba1e2;strokeColor=#006EAF;dashed=0;verticalLabelPosition=bottom;verticalAlign=top;align=center;html=1;fontSize=12;fontStyle=0;aspect=fixed;pointerEvents=1;shape=mxgraph.aws4.maintenance_windows;fontColor=#ffffff;" vertex="1" parent="1">
          <mxGeometry x="1088" y="429" width="65" height="65" as="geometry" />
        </mxCell>
        <mxCell id="znuqFYOBB7Gezf0xpwQd-46" value="Microservices" style="swimlane;startSize=0;verticalAlign=top;dashed=1;strokeWidth=3;" vertex="1" parent="1">
          <mxGeometry x="616" y="36" width="234" height="564" as="geometry">
            <mxRectangle x="616" y="20" width="110" height="30" as="alternateBounds" />
          </mxGeometry>
        </mxCell>
        <mxCell id="znuqFYOBB7Gezf0xpwQd-47" value="" style="whiteSpace=wrap;html=1;aspect=fixed;" vertex="1" parent="znuqFYOBB7Gezf0xpwQd-46">
          <mxGeometry x="27" y="411" width="135" height="135" as="geometry" />
        </mxCell>
        <mxCell id="znuqFYOBB7Gezf0xpwQd-48" value="Face&amp;nbsp;&lt;div&gt;Recognition API&lt;/div&gt;" style="image;aspect=fixed;perimeter=ellipsePerimeter;html=1;align=center;shadow=0;dashed=0;spacingTop=3;image=img/lib/active_directory/web_server.svg;" vertex="1" parent="znuqFYOBB7Gezf0xpwQd-46">
          <mxGeometry x="69" y="415" width="72" height="90" as="geometry" />
        </mxCell>
        <mxCell id="znuqFYOBB7Gezf0xpwQd-49" value="" style="image;sketch=0;aspect=fixed;html=1;points=[];align=center;fontSize=12;image=img/lib/mscae/Docker.svg;" vertex="1" parent="znuqFYOBB7Gezf0xpwQd-46">
          <mxGeometry x="32.610000000000014" y="416" width="24.39" height="20" as="geometry" />
        </mxCell>
        <mxCell id="znuqFYOBB7Gezf0xpwQd-51" value="Private Network" style="shape=umlFrame;whiteSpace=wrap;html=1;pointerEvents=0;width=120;height=25;strokeWidth=3;fillColor=#dae8fc;strokeColor=#6c8ebf;" vertex="1" parent="1">
          <mxGeometry x="585" y="3.5" width="655" height="616.5" as="geometry" />
        </mxCell>
        <mxCell id="znuqFYOBB7Gezf0xpwQd-53" value="" style="sketch=0;outlineConnect=0;fontColor=#232F3E;gradientColor=none;fillColor=#DD344C;strokeColor=none;dashed=0;verticalLabelPosition=bottom;verticalAlign=top;align=center;html=1;fontSize=12;fontStyle=0;aspect=fixed;shape=mxgraph.aws4.email;" vertex="1" parent="1">
          <mxGeometry x="1033" y="530" width="31.65" height="28" as="geometry" />
        </mxCell>
      </root>
    </mxGraphModel>
  </diagram>
</mxfile>
